<?xml version="1.0" encoding="UTF-8" standalone="no"?>
<svg
   width="16"
   height="16"
   version="1.1"
   id="svg3"
   sodipodi:docname="titlebutton-minimize.svg"
   xmlns:inkscape="http://www.inkscape.org/namespaces/inkscape"
   xmlns:sodipodi="http://sodipodi.sourceforge.net/DTD/sodipodi-0.dtd"
   xmlns="http://www.w3.org/2000/svg"
   xmlns:svg="http://www.w3.org/2000/svg">
  <defs
     id="defs3" />
  <sodipodi:namedview
     id="namedview3"
     pagecolor="#ffffff"
     bordercolor="#000000"
     borderopacity="0.25"
     inkscape:showpageshadow="2"
     inkscape:pageopacity="0.0"
     inkscape:pagecheckerboard="0"
     inkscape:deskcolor="#d1d1d1">
    <inkscape:page
       x="0"
       y="0"
       width="16"
       height="16"
       id="page2"
       margin="0"
       bleed="0" />
  </sodipodi:namedview>
  <g
     id="titlebutton-minimize"
     transform="translate(-253,242.64)">
    <rect
       x="253"
       y="-242.64"
       width="16"
       height="16"
       ry="1.6931001e-05"
       opacity="0"
       stroke-width="0.47432"
       style="paint-order:markers stroke fill"
       id="rect1" />
    <g
       transform="translate(254,-241.64)"
       enable-background="new"
       id="g3">
      <g
         transform="translate(-5,-1033.4)"
         fill-rule="evenodd"
         id="g2">
        <path
           d="m 12,1047.4 c 3.8659,0 6.9999,-3.134 6.9999,-7 0,-3.866 -3.134,-7 -6.9999,-7 -3.866,0 -7.0001,3.134 -7.0001,7 0,3.866 3.134,7 7.0001,7"
           fill="#caa124"
           id="path1" />
        <path
           d="m 12,1046.9 c 3.5898,0 6.4999,-2.9103 6.4999,-6.5001 0,-3.5899 -2.9102,-6.5 -6.4999,-6.5 -3.5899,0 -6.5001,2.9101 -6.5001,6.5 0,3.5898 2.9102,6.5001 6.5001,6.5001"
           fill="#fdc92d"
           id="path2" />
      </g>
    </g>
  </g>
</svg>
